<?xml version="1.0" standalone="no"?>
<!DOCTYPE svg PUBLIC "-//W3C//DTD SVG 20010904//EN"
 "http://www.w3.org/TR/2001/REC-SVG-20010904/DTD/svg10.dtd">
<svg version="1.0" xmlns="http://www.w3.org/2000/svg"
 width="500.000000pt" height="500.000000pt" viewBox="0 0 500.000000 500.000000"
 preserveAspectRatio="xMidYMid meet">

<g transform="translate(0.000000,500.000000) scale(0.100000,-0.100000)"
fill="#000000" stroke="none">
<path d="M1415 3251 c-33 -16 -82 -50 -110 -76 l-50 -46 63 45 c120 86 220 97
287 30 83 -83 39 -207 -89 -251 -36 -13 -82 -18 -156 -18 -122 0 -157 10 -329
92 -63 30 -142 63 -175 75 -84 29 -237 35 -336 15 -133 -28 -135 -33 -17 -41
139 -9 232 -34 375 -100 187 -87 241 -100 412 -101 162 0 230 15 310 66 126
80 135 244 17 314 -61 35 -124 34 -202 -4z"/>
<path d="M805 3151 c11 -5 40 -15 65 -22 25 -7 87 -35 139 -63 87 -46 102 -50
176 -54 116 -6 131 1 45 22 -41 10 -117 40 -170 68 -89 45 -103 49 -186 54
-58 3 -82 1 -69 -5z"/>
<path d="M444 2981 c-76 -20 -156 -100 -184 -185 -16 -50 -9 -170 13 -212 22
-43 71 -90 121 -117 35 -19 56 -22 156 -22 141 0 173 11 189 64 14 49 14 81 0
81 -7 0 -33 -22 -59 -48 -53 -54 -110 -78 -162 -68 -95 18 -140 90 -142 226
-1 109 16 164 64 212 34 34 43 38 89 38 65 0 107 -18 150 -64 19 -20 41 -36
48 -36 27 0 5 113 -25 125 -26 11 -223 15 -258 6z"/>
<path d="M4385 2969 c-22 -10 -48 -19 -57 -19 -26 0 -22 -17 5 -24 24 -6 24
-7 31 -191 3 -102 3 -203 0 -224 -5 -33 -11 -40 -37 -45 -54 -11 -19 -19 83
-20 71 -1 100 2 100 11 0 6 -12 13 -27 15 l-28 3 -3 258 c-2 196 -5 257 -15
256 -6 0 -30 -9 -52 -20z"/>
<path d="M4607 2972 c-24 -26 -21 -47 10 -71 23 -19 29 -20 47 -8 28 19 33 67
10 84 -25 18 -48 16 -67 -5z"/>
<path d="M1305 2806 c-11 -8 -39 -19 -63 -26 -38 -12 -58 -30 -32 -30 6 0 19
-9 30 -20 19 -19 20 -33 20 -235 l0 -215 -37 -19 c-21 -11 -36 -20 -33 -21 38
-5 220 -5 220 0 0 5 -13 13 -30 19 l-30 10 0 97 c0 88 1 95 18 88 24 -11 108
-17 137 -10 61 15 124 104 125 176 0 49 -38 120 -79 147 -40 27 -96 29 -156 8
-54 -20 -55 -19 -55 15 0 33 -6 36 -35 16z m189 -104 c52 -56 58 -155 11 -206
-20 -21 -33 -26 -73 -26 -71 0 -82 16 -89 134 -7 117 -1 126 71 126 44 0 56
-4 80 -28z"/>
<path d="M3028 2789 c-14 -11 -44 -26 -65 -33 l-38 -14 27 -12 c33 -16 38 -33
38 -153 0 -70 -4 -99 -12 -101 -53 -16 -47 -20 37 -26 50 -4 93 -5 98 -3 13 7
8 23 -8 23 -26 0 -35 37 -35 138 l0 98 39 22 c90 51 121 21 122 -119 1 -140 1
-137 -23 -141 -12 -2 -24 -9 -26 -17 -3 -10 0 -12 12 -8 10 4 54 7 97 7 51 0
78 4 74 10 -3 6 -15 10 -26 10 -18 0 -19 8 -19 114 0 62 -5 126 -10 143 -13
37 -57 63 -109 63 -41 0 -111 -27 -111 -42 0 -5 -4 -6 -10 -3 -5 3 -10 19 -10
36 0 34 -6 35 -42 8z"/>
<path d="M3502 2790 c-13 -11 -42 -25 -63 -32 l-40 -11 28 -23 c26 -21 28 -27
32 -113 4 -110 -2 -139 -29 -143 -51 -8 -17 -19 68 -22 73 -2 92 0 92 10 0 8
-7 14 -15 14 -24 0 -35 44 -35 139 0 79 2 90 24 110 13 12 42 25 64 28 59 8
71 -15 72 -142 1 -55 1 -107 1 -116 -1 -9 -12 -20 -26 -23 -50 -13 -23 -21 70
-21 59 0 94 4 92 10 -2 6 -13 11 -25 13 -21 3 -22 8 -22 116 0 62 -5 127 -11
145 -22 63 -111 80 -193 36 l-46 -24 0 34 c0 40 -6 42 -38 15z"/>
<path d="M4635 2794 c-11 -8 -37 -20 -57 -26 -40 -12 -51 -28 -20 -28 35 0 42
-21 42 -128 0 -115 -9 -142 -45 -142 -14 0 -25 -4 -25 -9 0 -9 179 -20 200
-13 20 7 9 21 -17 24 l-28 3 -1 140 c-1 183 -2 195 -16 195 -7 0 -22 -7 -33
-16z"/>
<path d="M1848 2790 c-54 -7 -92 -31 -126 -81 -21 -29 -23 -44 -20 -106 3 -60
7 -76 28 -98 76 -81 228 -91 291 -19 59 67 65 173 16 238 -45 58 -99 77 -189
66z m83 -33 c33 -25 43 -61 42 -143 -1 -81 -9 -108 -39 -138 -20 -20 -73 -21
-101 -1 -46 33 -54 216 -11 270 22 28 80 34 109 12z"/>
<path d="M2305 2791 c-78 -13 -148 -78 -161 -149 -9 -45 11 -120 38 -149 48
-52 163 -72 225 -40 42 22 77 63 69 82 -5 15 -11 12 -41 -14 -28 -24 -45 -31
-77 -31 -85 0 -149 111 -118 204 14 44 53 76 91 76 23 0 34 -9 54 -40 18 -28
32 -40 49 -40 50 0 58 56 13 84 -29 18 -92 26 -142 17z"/>
<path d="M4027 2790 c-46 -9 -84 -35 -114 -80 -28 -40 -32 -134 -8 -180 65
-126 286 -122 340 7 19 45 19 126 1 161 -38 73 -127 110 -219 92z m88 -26 c59
-23 72 -211 18 -275 -28 -33 -74 -39 -110 -14 -51 36 -53 236 -2 278 21 17 64
22 94 11z"/>
<path d="M922 2773 c-74 -36 -127 -127 -68 -116 32 6 66 39 66 63 0 23 36 50
66 50 31 0 44 -21 47 -75 l2 -48 -75 -32 c-123 -52 -158 -102 -109 -154 19
-20 29 -23 75 -19 36 3 63 12 85 29 l32 25 28 -29 c35 -34 64 -33 92 6 16 20
18 30 9 39 -9 9 -13 7 -18 -6 -5 -13 -9 -14 -20 -5 -10 9 -14 41 -14 126 0
108 -1 115 -25 138 -20 21 -34 25 -82 25 -33 0 -72 -7 -91 -17z m110 -223 c-7
-49 -29 -72 -66 -68 -27 3 -31 7 -34 36 -4 39 8 57 57 82 33 17 36 17 42 2 4
-10 4 -33 1 -52z"/>
<path d="M2645 2773 c-48 -25 -95 -75 -95 -100 0 -27 -2 -27 44 -8 28 12 38
23 43 46 6 33 36 59 69 59 31 0 43 -20 46 -75 l3 -49 -75 -31 c-115 -49 -154
-99 -116 -151 11 -15 27 -19 73 -19 49 0 66 5 95 27 28 22 37 24 41 13 10 -24
54 -47 77 -40 25 8 54 50 45 65 -5 8 -12 6 -25 -5 -16 -15 -18 -15 -24 0 -3 9
-6 66 -6 126 0 103 -1 111 -25 134 -20 21 -34 25 -82 25 -33 -1 -71 -8 -88
-17z m110 -223 c-8 -48 -34 -73 -72 -68 -24 3 -28 8 -31 40 -3 35 0 40 44 68
42 26 49 28 57 15 5 -9 6 -33 2 -55z"/>
<path d="M2020 2360 c0 -5 5 -10 10 -10 6 0 10 5 10 10 0 6 -4 10 -10 10 -5 0
-10 -4 -10 -10z"/>
<path d="M2210 2368 c-1 -2 -2 -36 -3 -76 -1 -52 1 -72 11 -72 8 0 12 22 12
75 0 43 -4 75 -10 75 -5 0 -10 -1 -10 -2z"/>
<path d="M2280 2360 c0 -5 5 -10 10 -10 6 0 10 5 10 10 0 6 -4 10 -10 10 -5 0
-10 -4 -10 -10z"/>
<path d="M2970 2360 c0 -5 5 -10 10 -10 6 0 10 5 10 10 0 6 -4 10 -10 10 -5 0
-10 -4 -10 -10z"/>
<path d="M3610 2360 c0 -5 5 -10 10 -10 6 0 10 5 10 10 0 6 -4 10 -10 10 -5 0
-10 -4 -10 -10z"/>
<path d="M4000 2360 c0 -5 5 -10 11 -10 5 0 7 5 4 10 -3 6 -8 10 -11 10 -2 0
-4 -4 -4 -10z"/>
<path d="M4260 2295 c0 -43 4 -75 10 -75 6 0 10 32 10 75 0 43 -4 75 -10 75
-6 0 -10 -32 -10 -75z"/>
<path d="M4325 2360 c3 -5 10 -10 16 -10 5 0 9 5 9 10 0 6 -7 10 -16 10 -8 0
-12 -4 -9 -10z"/>
<path d="M2704 2320 c-5 -5 -8 -30 -6 -55 4 -39 7 -45 26 -44 11 0 15 3 9 6
-15 5 -18 70 -4 75 5 2 3 8 -4 15 -7 7 -16 8 -21 3z"/>
<path d="M4064 2306 c-10 -42 -1 -81 21 -84 15 -2 17 -1 6 6 -10 7 -12 22 -8
56 7 48 -8 65 -19 22z"/>
<path d="M1590 2311 c0 -5 5 -13 10 -16 6 -3 10 -2 10 4 0 5 -4 13 -10 16 -5
3 -10 2 -10 -4z"/>
<path d="M1650 2316 c-1 -1 -2 -36 -3 -79 -1 -56 1 -77 11 -77 8 0 12 21 12
70 0 67 1 70 24 70 28 0 41 -27 30 -62 -6 -20 -5 -21 10 -9 17 14 21 48 7 69
-6 10 -88 26 -91 18z"/>
<path d="M1837 2299 c3 -10 11 -19 19 -19 16 0 8 26 -11 33 -9 4 -11 -1 -8
-14z"/>
<path d="M1960 2305 c7 -9 15 -13 17 -11 7 7 -7 26 -19 26 -6 0 -6 -6 2 -15z"/>
<path d="M2025 2314 c-12 -5 -7 -94 6 -94 5 0 9 23 9 50 0 28 -1 50 -2 49 -2
0 -8 -2 -13 -5z"/>
<path d="M2284 2312 c-17 -12 -16 -92 2 -92 10 0 14 13 14 50 0 28 -1 50 -2
50 -2 0 -8 -4 -14 -8z"/>
<path d="M2450 2310 c0 -5 5 -10 11 -10 5 0 7 5 4 10 -3 6 -8 10 -11 10 -2 0
-4 -4 -4 -10z"/>
<path d="M2630 2272 c3 -25 10 -47 15 -49 15 -5 6 85 -9 90 -8 3 -10 -8 -6
-41z"/>
<path d="M2969 2318 c0 -2 -1 -24 -2 -51 -1 -32 2 -47 11 -47 8 0 12 17 12 50
0 28 -4 50 -10 50 -5 0 -10 -1 -11 -2z"/>
<path d="M3039 2318 c-1 -2 -2 -24 -3 -50 -2 -35 1 -48 11 -48 16 0 19 85 3
95 -5 3 -10 5 -11 3z"/>
<path d="M3099 2307 c8 -10 12 -31 9 -52 -3 -24 0 -35 9 -35 8 0 13 14 13 40
0 31 -5 42 -22 51 -21 11 -22 11 -9 -4z"/>
<path d="M3290 2312 c0 -12 19 -26 26 -19 2 2 -2 10 -11 17 -9 8 -15 8 -15 2z"/>
<path d="M3546 2306 c3 -9 11 -16 16 -16 13 0 5 23 -10 28 -7 2 -10 -2 -6 -12z"/>
<path d="M3615 2312 c-16 -12 -15 -92 1 -92 10 0 14 14 14 50 0 28 -1 50 -2
50 -2 0 -7 -4 -13 -8z"/>
<path d="M3679 2313 c-7 -36 -2 -93 7 -93 14 0 18 87 4 95 -5 3 -11 3 -11 -2z"/>
<path d="M3740 2300 c7 -12 10 -35 8 -51 -3 -20 0 -29 9 -29 9 0 13 13 13 40
0 30 -5 42 -21 50 -19 11 -20 10 -9 -10z"/>
<path d="M3862 2275 c3 -40 7 -51 23 -54 16 -3 17 -1 7 11 -6 8 -10 24 -8 35
3 12 -2 29 -10 40 -13 16 -14 13 -12 -32z"/>
<path d="M3996 2308 c-10 -30 -2 -88 11 -88 9 0 13 15 13 50 0 45 -15 68 -24
38z"/>
<path d="M4192 2276 c2 -27 8 -51 15 -53 8 -3 10 9 6 39 -8 63 -25 74 -21 14z"/>
<path d="M4329 2318 c-1 -2 -2 -24 -3 -50 -1 -34 2 -48 11 -48 9 0 13 16 13
50 0 28 -4 50 -10 50 -5 0 -11 -1 -11 -2z"/>
<path d="M4581 2299 c6 -12 9 -34 7 -50 -3 -20 0 -29 9 -29 19 0 17 65 -3 84
-21 22 -27 20 -13 -5z"/>
<path d="M1782 2290 c-14 -34 6 -64 44 -67 21 -1 22 0 7 4 -13 2 -25 14 -28
26 -2 12 -6 31 -8 42 -4 18 -5 18 -15 -5z"/>
<path d="M1902 2289 c-7 -11 -10 -29 -7 -40 7 -20 45 -35 67 -26 7 3 3 6 -10
6 -27 1 -44 37 -30 64 12 24 -4 21 -20 -4z"/>
<path d="M2140 2271 c0 -22 5 -43 11 -46 15 -10 16 -5 11 43 -5 53 -22 55 -22
3z"/>
<path d="M2385 2296 c-6 -8 -20 -28 -33 -45 -23 -31 -23 -31 -3 -31 12 0 21 5
21 11 0 6 12 26 26 45 18 23 22 34 13 34 -8 0 -19 -6 -24 -14z"/>
<path d="M2492 2288 c-7 -13 -19 -33 -28 -45 -13 -18 -13 -23 -3 -22 8 0 29
20 46 45 28 37 30 44 14 44 -10 0 -23 -10 -29 -22z"/>
<path d="M2770 2294 c-10 -11 -11 -23 -4 -41 15 -43 29 -37 29 12 0 48 -5 54
-25 29z"/>
<path d="M2835 2265 c0 -51 6 -56 24 -21 10 18 10 29 2 45 -18 33 -26 25 -26
-24z"/>
<path d="M3229 2289 c-19 -35 3 -69 43 -68 24 1 27 3 11 6 -24 5 -40 41 -29
68 8 23 -12 18 -25 -6z"/>
<path d="M3352 2268 c2 -34 7 -43 23 -45 11 -2 14 0 8 3 -7 3 -13 23 -13 45 0
21 -5 39 -11 39 -6 0 -9 -17 -7 -42z"/>
<path d="M3420 2265 c0 -29 4 -45 13 -45 8 0 11 14 9 45 -2 25 -8 45 -13 45
-5 0 -9 -20 -9 -45z"/>
<path d="M3492 2298 c-7 -7 -12 -21 -12 -33 0 -28 19 -45 50 -45 l25 0 -25 13
c-19 10 -25 20 -24 45 2 36 2 36 -14 20z"/>
<path d="M3810 2295 c-8 -9 -8 -15 -2 -15 12 0 26 19 19 26 -2 2 -10 -2 -17
-11z"/>
<path d="M4140 2295 c-7 -9 -8 -15 -2 -15 5 0 12 7 16 15 3 8 4 15 2 15 -2 0
-9 -7 -16 -15z"/>
<path d="M4397 2303 c-4 -3 -7 -11 -7 -17 0 -6 5 -5 12 2 6 6 9 14 7 17 -3 3
-9 2 -12 -2z"/>
<path d="M4449 2303 c-9 -48 0 -82 21 -83 9 0 -1 80 -11 86 -5 3 -10 2 -10 -3z"/>
<path d="M4510 2265 c0 -30 4 -45 13 -45 8 0 13 15 13 45 0 30 -5 45 -13 45
-9 0 -13 -15 -13 -45z"/>
<path d="M4650 2295 c-7 -9 -8 -15 -2 -15 5 0 12 7 16 15 3 8 4 15 2 15 -2 0
-9 -7 -16 -15z"/>
<path d="M4700 2271 c0 -22 5 -43 11 -46 15 -10 16 -5 11 43 -5 53 -22 55 -22
3z"/>
<path d="M1540 2284 c0 -7 12 -19 28 -27 15 -7 26 -19 24 -26 -1 -7 2 -10 8
-6 21 13 9 41 -25 57 -28 12 -35 13 -35 2z"/>
<path d="M2085 2290 c-3 -5 -1 -10 4 -10 6 0 11 5 11 10 0 6 -2 10 -4 10 -3 0
-8 -4 -11 -10z"/>
<path d="M2570 2289 c0 -5 5 -7 10 -4 6 3 10 8 10 11 0 2 -4 4 -10 4 -5 0 -10
-5 -10 -11z"/>
<path d="M3822 2254 c-23 -16 -21 -34 4 -34 8 0 12 5 9 10 -4 6 -1 17 5 25 16
19 10 19 -18 -1z"/>
<path d="M2091 2246 c-15 -18 -10 -29 12 -24 9 2 12 9 8 21 -6 17 -8 18 -20 3z"/>
<path d="M2577 2253 c-12 -11 -8 -33 6 -33 7 0 13 9 13 20 0 20 -7 25 -19 13z"/>
<path d="M4141 2246 c-11 -13 -11 -17 3 -22 21 -8 25 -4 17 19 -6 17 -8 17
-20 3z"/>
<path d="M4397 2253 c-12 -11 -8 -33 6 -33 7 0 13 9 13 20 0 20 -7 25 -19 13z"/>
<path d="M4651 2246 c-11 -13 -11 -17 3 -22 21 -8 25 -4 17 19 -6 17 -8 17
-20 3z"/>
<path d="M1540 2230 c0 -5 5 -10 11 -10 5 0 7 5 4 10 -3 6 -8 10 -11 10 -2 0
-4 -4 -4 -10z"/>
<path d="M2405 2230 c-3 -5 -1 -10 4 -10 6 0 11 5 11 10 0 6 -2 10 -4 10 -3 0
-8 -4 -11 -10z"/>
<path d="M2520 2230 c-13 -8 -12 -10 3 -10 9 0 17 5 17 10 0 12 -1 12 -20 0z"/>
</g>
</svg>
